<?xml version="1.0" encoding="UTF-8" standalone="no"?>
<svg xmlns="http://www.w3.org/2000/svg" xml:space="preserve" width="250" height="250" 
viewBox="700.5 0.5 599 599" data-version="1" data-id="lg_8KDyjZWw3MyuQGS3Mq">
<g id="outer-wrapper" data-padding="20" transform="matrix(1,0,0,1,0,0)">
<g id="inner-wrapper" transform="matrix(0.9666110183639399,0,0,0.9666110183639399,10,10)">
<path fill="#111" d="M1024.1968911917097 2.842170943040401e-14A299.5 299.5 0 1 0 1024.1968911917097 599A299.5 299.5 0 1 0 1024.1968911917097 0 "></path>
<rect width="339.965" height="559.35" x="454.2148911917096" y="-360.955" fill="none" rx="0" ry="0" transform="translate(400 400)"></rect>
<path fill="#b10dc9" d="M1133.3468911917098 462.34000000000003L1024.4468911917097 129.70000000000005L916.0368911917097 462.34000000000003V461.84000000000003Q913.0668911917097 469.27 907.8668911917097 473.97Q902.6768911917097 478.6700000000001 895.2468911917098 478.6700000000001Q891.2868911917097 478.6700000000001 887.5768911917097 477.93000000000006T879.9068911917097 476.20000000000005H880.3968911917096Q852.1868911917097 467.2900000000001 859.6068911917097 444.5200000000001L972.4668911917097 101.48000000000008Q974.9468911917097 93.56000000000009 981.1268911917097 88.12000000000006Q987.3168911917097 82.67000000000007 995.7368911917098 81.68000000000006Q1004.1468911917098 80.20000000000007 1012.0668911917097 79.46000000000006Q1019.9868911917098 78.71000000000006 1024.4468911917097 78.71000000000006Q1028.8968911917095 78.71000000000006 1036.8168911917096 79.46000000000006Q1044.7368911917097 80.20000000000007 1053.1568911917097 81.19000000000005Q1060.0868911917096 82.18000000000006 1066.7668911917099 88.61000000000004Q1073.4468911917097 95.05000000000004 1076.9168911917095 101.48000000000005Q1104.6368911917098 186.62000000000006 1133.0968911917098 273.00000000000006T1189.2768911917096 444.5200000000001Q1196.2068911917095 467.2900000000001 1168.4868911917097 476.20000000000005Q1164.5268911917096 477.19000000000005 1161.3068911917098 477.93000000000006Q1158.0968911917098 478.6700000000001 1154.1368911917098 478.6700000000001Q1147.20689119171 478.6700000000001 1141.5068911917097 473.97Q1135.8168911917096 469.27 1133.3468911917098 461.84000000000003ZM1061.5668911917096 355.42Q1061.5668911917096 371.26 1050.4268911917097 382.40000000000003Q1039.2968911917096 393.53000000000003 1023.4568911917097 393.53000000000003T996.7268911917097 382.40000000000003Q985.8368911917097 371.26000000000005 985.8368911917097 355.42T996.7268911917097 328.44T1023.4568911917097 317.3T1050.4268911917097 328.44Q1061.5668911917096 339.58 1061.5668911917096 355.42 "></path></g><rect width="599" height="599" x="700.5" y="0" id="space-saver" fill="transparent" stroke="transparent"></rect>
</g>
</svg>
